<svg height="512" viewBox="0 0 64 64" width="512" xmlns="http://www.w3.org/2000/svg"><path d="m55 14a1 1 0 0 0 1-1v-10a1 1 0 0 0 -1-1h-46a1 1 0 0 0 -1 1v10a1 1 0 0 0 1 1h1v43h-1a1 1 0 0 0 -1 1v3a1 1 0 0 0 1 1h46a1 1 0 0 0 1-1v-3a1 1 0 0 0 -1-1h-1v-43zm-1 46h-44v-1h44zm-42-3v-43h1v43zm18.59-11.68-4.24 4.24-4.25-4.25 4.24-4.24zm-8.5-11.32 4.25-4.25 4.25 4.25-4.25 4.25zm5.66 5.66 4.25-4.25 4.25 4.25-4.25 4.25zm5.66-5.66 4.25-4.25 4.25 4.25-4.25 4.25zm4.25 7.07 4.24 4.24-4.25 4.25-4.24-4.24zm1.41-1.41 4.25-4.25 4.24 4.24-4.25 4.25zm0-11.32 4.24-4.24 4.25 4.25-4.24 4.24zm-1.41-1.41-4.25-4.25 4.24-4.24 4.25 4.25zm-1.41 1.41-4.25 4.25-4.25-4.25 4.25-4.25zm-9.91-1.41-4.24-4.24 4.25-4.25 4.24 4.24zm-1.41 1.41-4.25 4.25-4.24-4.24 4.25-4.25zm0 11.32-4.24 4.24-4.25-4.25 4.24-4.24zm.01 11.31-4.25 4.25-4.25-4.25 4.25-4.25zm1.41 1.41 4.24 4.24-.38.38h-7.74l-.37-.37zm1.41-1.41 4.24-4.24 4.24 4.24-4.24 4.24zm9.89 1.41 4.25 4.25-.37.37h-7.74l-.38-.38zm1.41-1.41 4.25-4.25 4.25 4.25-4.25 4.25zm9.94 1.38v4.65h-4.65zm-.03-2.79-4.25-4.25 4.25-4.25.03.03v8.44zm0-11.32-4.24-4.24 4.24-4.24.03.03v8.42zm0-11.3-4.25-4.25 4.25-4.25.03.03v8.44zm-1.62-12.94h1.65v1.65zm.21 3.03-4.25 4.25-4.25-4.25 3.03-3.03h2.44zm-9.91-1.41-1.62-1.62h3.24zm-1.41 1.41-4.24 4.24-4.24-4.24 3.03-3.03h2.42zm-9.89-1.41-1.62-1.62h3.24zm-1.41 1.41-4.25 4.25-4.25-4.25 3.03-3.03h2.44zm-9.94-1.38v-1.65h1.65zm.03 2.79 4.25 4.25-4.25 4.25-.03-.03v-8.44zm0 11.32 4.24 4.24-4.24 4.24-.03-.03v-8.42zm0 11.3 4.25 4.25-4.25 4.25-.03-.03v-8.44zm4.62 15.94h-4.65v-4.65zm31.35 0v-43h1v43zm-41-45v-8h44v8z"/></svg>